<?xml version="1.0" encoding="iso-8859-1"?>
<!-- Generator: Adobe Illustrator 19.0.0, SVG Export Plug-In . SVG Version: 6.00 Build 0)  -->
<svg version="1.1" id="Layer_1" xmlns="http://www.w3.org/2000/svg" xmlns:xlink="http://www.w3.org/1999/xlink" x="0px" y="0px"
	 viewBox="0 0 459.497 459.497" style="enable-background:new 0 0 459.497 459.497;" xml:space="preserve">
<g id="XMLID_827_">
	<g>
		<path d="M418.585,98.518H325.37v-33.54c0-23.097-18.79-41.887-41.887-41.887H176.014c-23.097,0-41.887,18.79-41.887,41.887v33.54
			H40.912C18.353,98.518,0,116.872,0,139.432v256.061c0,22.559,18.353,40.913,40.912,40.913h377.672
			c22.559,0,40.913-18.353,40.913-40.913V139.432C459.498,116.872,441.144,98.518,418.585,98.518z M162.443,64.979
			c0-7.483,6.088-13.571,13.571-13.571h107.469c7.483,0,13.571,6.088,13.571,13.571v33.54H162.443V64.979z M28.316,139.432
			c0-6.946,5.651-12.598,12.596-12.598c16.776,0,357.573,0,377.672,0c6.946,0,12.597,5.651,12.597,12.597v100.875h-63.613v-33.906
			c0-7.819-6.339-14.158-14.158-14.158h-64.795c-7.819,0-14.158,6.339-14.158,14.158v33.907h-89.42v-33.907
			c0-7.819-6.339-14.158-14.158-14.158h-64.795c-7.819,0-14.158,6.339-14.158,14.158v33.907h-63.61V139.432z M339.254,220.557
			v65.339h-36.479v-65.339H339.254z M156.723,220.557v65.339h-36.48v-65.339H156.723z M431.182,395.492
			c0,6.946-5.651,12.597-12.597,12.597H40.912c-6.946,0-12.597-5.651-12.597-12.597V268.622h63.612v31.432
			c0,7.819,6.339,14.158,14.158,14.158h64.795c7.819,0,14.158-6.339,14.158-14.158v-31.432h89.42v31.432
			c0,7.819,6.339,14.158,14.158,14.158h64.795c7.819,0,14.158-6.339,14.158-14.158v-31.432h63.613V395.492z"/>
	</g>
</g>
<g>
</g>
<g>
</g>
<g>
</g>
<g>
</g>
<g>
</g>
<g>
</g>
<g>
</g>
<g>
</g>
<g>
</g>
<g>
</g>
<g>
</g>
<g>
</g>
<g>
</g>
<g>
</g>
<g>
</g>
</svg>
